<mxfile host="app.diagrams.net" modified="2024-06-17T00:43:07.737Z" agent="Mozilla/5.0 (Windows NT 10.0; Win64; x64) AppleWebKit/537.36 (KHTML, like Gecko) Chrome/127.0.0.0 Safari/537.36 Edg/127.0.0.0" etag="7k5oXqldLSeqtLFzifAw" version="24.5.4" type="github">
  <diagram name="第 1 页" id="_UOp_g0qZEWWEiO1d6dB">
    <mxGraphModel dx="1678" dy="104" grid="1" gridSize="10" guides="1" tooltips="1" connect="1" arrows="1" fold="1" page="1" pageScale="1" pageWidth="1169" pageHeight="827" math="0" shadow="0">
      <root>
        <mxCell id="0" />
        <mxCell id="1" parent="0" />
        <mxCell id="BTRqAr_5ZGRuxJ-iE8oP-1" value="" style="rounded=0;whiteSpace=wrap;html=1;" parent="1" vertex="1">
          <mxGeometry x="290" y="1370" width="1470" height="90" as="geometry" />
        </mxCell>
        <mxCell id="BTRqAr_5ZGRuxJ-iE8oP-7" value="姿势信息&lt;div&gt;指导向量&lt;/div&gt;" style="rounded=0;whiteSpace=wrap;html=1;" parent="1" vertex="1">
          <mxGeometry x="420" y="1385" width="120" height="60" as="geometry" />
        </mxCell>
        <mxCell id="BTRqAr_5ZGRuxJ-iE8oP-9" value="语义信息&lt;div&gt;指导向量&lt;/div&gt;" style="rounded=0;whiteSpace=wrap;html=1;" parent="1" vertex="1">
          <mxGeometry x="540" y="1385" width="120" height="60" as="geometry" />
        </mxCell>
        <mxCell id="BTRqAr_5ZGRuxJ-iE8oP-11" value="边缘信息&lt;div&gt;指导向量&lt;/div&gt;" style="rounded=0;whiteSpace=wrap;html=1;" parent="1" vertex="1">
          <mxGeometry x="790" y="1385" width="120" height="60" as="geometry" />
        </mxCell>
        <mxCell id="BTRqAr_5ZGRuxJ-iE8oP-13" value="&lt;b&gt;表征提示词&lt;/b&gt;" style="rounded=0;whiteSpace=wrap;html=1;" parent="1" vertex="1">
          <mxGeometry x="300" y="1385" width="120" height="60" as="geometry" />
        </mxCell>
        <mxCell id="BTRqAr_5ZGRuxJ-iE8oP-14" value="&lt;font style=&quot;font-size: 30px;&quot;&gt;···········&lt;/font&gt;" style="text;html=1;align=center;verticalAlign=middle;resizable=0;points=[];autosize=1;strokeColor=none;fillColor=none;" parent="1" vertex="1">
          <mxGeometry x="660" y="1390" width="130" height="50" as="geometry" />
        </mxCell>
        <mxCell id="BTRqAr_5ZGRuxJ-iE8oP-20" value="目标运动轨迹运动&lt;div&gt;指导向量&lt;/div&gt;" style="rounded=0;whiteSpace=wrap;html=1;" parent="1" vertex="1">
          <mxGeometry x="910" y="1385" width="120" height="60" as="geometry" />
        </mxCell>
        <mxCell id="BTRqAr_5ZGRuxJ-iE8oP-21" value="语义级加密信息&lt;div&gt;指导向量&lt;/div&gt;" style="rounded=0;whiteSpace=wrap;html=1;" parent="1" vertex="1">
          <mxGeometry x="1150" y="1385" width="120" height="60" as="geometry" />
        </mxCell>
        <mxCell id="BTRqAr_5ZGRuxJ-iE8oP-22" value="语义超分辨率增强&lt;div&gt;指导向量&lt;/div&gt;" style="rounded=0;whiteSpace=wrap;html=1;" parent="1" vertex="1">
          <mxGeometry x="1390" y="1385" width="120" height="60" as="geometry" />
        </mxCell>
        <mxCell id="BTRqAr_5ZGRuxJ-iE8oP-24" value="可变语言文字&lt;div&gt;指导向量&lt;/div&gt;" style="rounded=0;whiteSpace=wrap;html=1;" parent="1" vertex="1">
          <mxGeometry x="1030" y="1385" width="120" height="60" as="geometry" />
        </mxCell>
        <mxCell id="BTRqAr_5ZGRuxJ-iE8oP-25" value="&lt;div&gt;可变角色语义&lt;/div&gt;&lt;div&gt;指导向量&lt;/div&gt;" style="rounded=0;whiteSpace=wrap;html=1;" parent="1" vertex="1">
          <mxGeometry x="1270" y="1385" width="120" height="60" as="geometry" />
        </mxCell>
        <mxCell id="BTRqAr_5ZGRuxJ-iE8oP-26" value="&lt;div&gt;个性化风格表达&lt;/div&gt;&lt;div&gt;指导向量&lt;/div&gt;" style="rounded=0;whiteSpace=wrap;html=1;" parent="1" vertex="1">
          <mxGeometry x="1510" y="1385" width="120" height="60" as="geometry" />
        </mxCell>
        <mxCell id="BTRqAr_5ZGRuxJ-iE8oP-27" value="&lt;div&gt;低分辨率&lt;/div&gt;&lt;div&gt;特征图&lt;/div&gt;" style="rounded=0;whiteSpace=wrap;html=1;" parent="1" vertex="1">
          <mxGeometry x="1630" y="1385" width="120" height="60" as="geometry" />
        </mxCell>
      </root>
    </mxGraphModel>
  </diagram>
</mxfile>
